<?xml version="1.0" encoding="utf-8"?>
<!-- Generator: Adobe Illustrator 26.5.0, SVG Export Plug-In . SVG Version: 6.00 Build 0)  -->
<svg version="1.1" id="wave" xmlns="http://www.w3.org/2000/svg" xmlns:xlink="http://www.w3.org/1999/xlink" x="0px" y="0px"
	 viewBox="0 0 1440 490" style="enable-background:new 0 0 1440 490;" xml:space="preserve">
<style type="text/css">
	.st0{fill:url(#SVGID_1_);}
</style>
<linearGradient id="SVGID_1_" gradientUnits="userSpaceOnUse" x1="422.4389" y1="664.4887" x2="422.4389" y2="665.6019" gradientTransform="matrix(6912 0 0 -441 -2916442 293530.4062)">
	<stop  offset="0" style="stop-color:#000000"/>
	<stop  offset="1" style="stop-color:#000000"/>
</linearGradient>
<path class="st0" d="M0,0l48,36.4c48,36,144,109.4,240,154.5s192,64,288,45.4c96-18.1,192-72.7,288-54.5c96,18.6,192,108.8,288,81.8
	c96-27.6,192-172.3,288-209s192,36.7,288,72.7c96,36.4,192,36.4,288,54.5c96,18.6,192,54.2,288,72.8c96,18.1,192,18.1,288,18.1
	s192,0,288-9.1c96-8.7,192-27.6,288-18.1s192,45.1,288,9.1c96-36.4,192-145.5,288-136.4c96,8.7,192,136.7,288,127.2
	s192-154.2,288-154.5c96,0.3,192,145,288,209s192,45.1,288-9.1c96-54.9,192-145,288-127.2s192,145.8,288,172.8
	c96,27.6,192-45.9,288-90.9s192-64,288-90.9c96-27.6,192-63.2,288-18.1s192,173.1,288,218.2s192,9.5,240-9.1l48-18.1v163.6h-48
	c-48,0-144,0-240,0s-192,0-288,0s-192,0-288,0s-192,0-288,0s-192,0-288,0s-192,0-288,0s-192,0-288,0s-192,0-288,0s-192,0-288,0
	s-192,0-288,0s-192,0-288,0s-192,0-288,0s-192,0-288,0s-192,0-288,0s-192,0-288,0s-192,0-288,0s-192,0-288,0s-192,0-288,0
	s-192,0-288,0s-192,0-288,0s-192,0-288,0s-192,0-288,0s-192,0-288,0s-192,0-240,0H0V0z"/>
</svg>
